<?xml version="1.0" encoding="UTF-8"?>
<svg id="Layer_2" data-name="Layer 2" xmlns="http://www.w3.org/2000/svg" viewBox="0 0 1182.67 475.16">
  <g>
    <path d="m93.28,332.11c-4.49-18.83-8.55-30.2-11.4-35.87.58,6.33,1.95,12.57,3.37,19.08.26,1.18.51,2.36.77,3.54,1.71,7.99,3.12,16.51,4.44,26.79.8,6.25,1.58,12.1,2.49,17.77l.55-18.04,5.13,26.13c.06.32,6.49,32.46,19.37,47.64,2.45,2.88,5.11,5.85,7.94,8.99,9.5,10.57,19.94,22.18,24.14,33.39.82-3.29,1.37-7.17,1.06-11.28-.32-4.35-2.63-12.31-5.07-20.74-3.53-12.18-7.44-25.66-7.72-35.5-1.71,2.07-3.17,5.38-2.46,10.45l2.18,15.69-7.77-13.81c-.49-.88-10.55-18.96-12.38-37.91-1.01,2.56-1.61,5.91-.97,10.1l3.51,22.88-9.23-21.23c-1.14-2.63-2.08-5.25-2.85-7.47-2.89-8.37-5.54-17.38-5.36-26.46.07-3.3.57-6.38,1.51-9.15.77-2.28,1.79-4.43,2.87-6.51l-6.26,4.46c-1.38.98-3.15,1.21-4.73.62-1.58-.59-2.76-1.93-3.15-3.57Z"/>
    <path d="m379.83,332.11c4.49-18.83,8.55-30.2,11.4-35.87-.58,6.33-1.95,12.57-3.37,19.08-.26,1.18-.51,2.36-.77,3.54-1.71,7.99-3.12,16.51-4.44,26.79-.8,6.25-1.58,12.1-2.49,17.77l-.55-18.04-5.13,26.13c-.06.32-6.49,32.46-19.37,47.64-2.45,2.88-5.11,5.85-7.94,8.99-9.5,10.57-19.94,22.18-24.14,33.39-.82-3.29-1.37-7.17-1.06-11.28.32-4.35,2.63-12.31,5.07-20.74,3.53-12.18,7.44-25.66,7.72-35.5,1.71,2.07,3.17,5.38,2.46,10.45l-2.18,15.69,7.77-13.81c.49-.88,10.55-18.96,12.38-37.91,1.01,2.56,1.61,5.91.97,10.1l-3.51,22.88,9.23-21.23c1.14-2.63,2.08-5.25,2.85-7.47,2.89-8.37,5.54-17.38,5.36-26.46-.07-3.3-.57-6.38-1.51-9.15-.77-2.28-1.79-4.43-2.87-6.51l6.26,4.46c1.38.98,3.15,1.21,4.73.62,1.58-.59,2.76-1.93,3.15-3.57Z"/>
    <path d="m179.21,152.08c-3.42-7.97-7.98-15.49-13.1-22.6-16.75-22.44-38.43-40.88-61.78-56.23-1.1-1.38-2.38-2.97-3.78-4.68.25-3.95-19.04-35.81-19.08-35.78,2.09,3.3,6.22,19.19,6.22,19.19-8.49-14.07-26.41-38-26.41-38,6.3,8.98,16.03,28.19,17.21,30.86-.2-.18-.41-.36-.61-.55-10.47-12.3-33.6-30.66-33.6-30.66,0,0,6.43,6.8,14.84,16.38,1.7,5.7,7.66,22.43,21.68,32.81,7.53,5.57,13.85,13.63,18.57,20.91-.15,2.44-.28,4.78-.36,6.82,1.08,16.38,2.83,32.5,6.61,48.5,1.35,5.06,2.5,9.65,5.03,14.35h0c-4.32,12.48-3.7,26.05-.86,38.74.03-.19.06-.39.08-.58v.89c-.03-.1-.06-.21-.08-.31-1.14,8.76-4.21,17.21-7.33,25.51,5.48-7.82,10.22-15.93,12.8-25.31-.81-11.88-.38-24.35,4.45-35.36.25-.58.69-1.45.93-2.03.38-.87.45-2.2.46-3.19-2.53-4.29-3.75-9.94-4.76-15.07-.97-5.01-1.67-10.15-2.35-15.31-1.17-8.78-2.32-22.45-2.97-29.59,18.14,12.21,35.46,25.82,51.16,41.06,5.99,6.03,11.69,12.37,17.02,19.23Z"/>
    <path d="m109.88,191.56v.89c-.03-.1-.06-.21-.08-.31.03-.19.06-.39.08-.58Z"/>
    <path d="m428.81,13.63s-6.43,6.8-14.84,16.38c-1.7,5.7-7.66,22.42-21.68,32.81-7.53,5.58-13.85,13.64-18.58,20.93.15,2.42.28,4.76.37,6.8-1.07,16.38-2.82,32.5-6.6,48.5-1.36,5.07-2.5,9.65-5.03,14.35h0c4.32,12.48,3.7,26.05.86,38.74-.03-.19-.06-.39-.08-.58v.89c.03-.1.06-.21.08-.31,1.14,8.76,4.21,17.21,7.33,25.51-5.49-7.82-10.22-15.93-12.8-25.31.81-11.88.38-24.35-4.45-35.36-.27-.58-.67-1.46-.93-2.03-.38-.87-.46-2.2-.46-3.19,2.52-4.29,3.74-9.93,4.76-15.07.97-5.01,1.67-10.15,2.35-15.31,1.16-8.73,2.33-22.48,2.96-29.58-18.13,12.21-35.45,25.81-51.15,41.05-5.99,6.03-11.69,12.37-17.03,19.23,3.42-7.97,7.99-15.49,13.1-22.6,16.75-22.44,38.44-40.89,61.79-56.23,1.1-1.37,2.38-2.97,3.78-4.68-.25-3.95,19.04-35.81,19.08-35.78-2.1,3.3-6.23,19.18-6.23,19.18,8.22-13.62,25.3-36.5,26.36-37.92-6.3,9-15.98,28.12-17.16,30.79.2-.18.4-.37.61-.55,10.47-12.3,33.59-30.66,33.59-30.66Z"/>
    <path d="m363.31,192.14c-.02.1-.05.21-.07.31v-.89c0,.19.04.39.07.58Z"/>
    <path d="m257.47,316.83c-.61.27-1.23.36-1.87.35-1.73-.02-3.52-.76-5.24-.44-3.04.57-5.09,3.18-5.94,6.03-.51,1.72-.76,5.55,1.8,5.88,1.95.24,2.57.08,2.73.02-.72.48-12.26,8.13-12.4,11.11-.15-2.98-11.69-10.63-12.41-11.11.16.06.79.22,2.73-.02,2.56-.33,2.31-4.16,1.8-5.88-.84-2.85-2.9-5.46-5.94-6.03-1.72-.32-3.51.42-5.24.44-.63.01-1.26-.08-1.87-.35-1.47-.65-2.28-2.1-1.37-3.58,1.01-1.65,3.07-2.83,4.61-3.93,2.33-1.66,4.96-3.09,7.76-3.74,3.21-.75,6.89-.58,9.93.81,3.03-1.39,6.71-1.56,9.92-.81,2.81.65,5.44,2.08,7.77,3.74,1.53,1.1,3.6,2.28,4.61,3.93.91,1.48.1,2.93-1.38,3.58Z"/>
    <path d="m171.28,315.75c.48,8.03,2.19,16.03,6.02,23.09,8.85,15.82,30.72,18.83,46.52,12.71,5.57-2.15,10.36-6.05,12.73-11.77-1.5,8.5-9.63,14.25-17.53,16.54-12.2,3.73-26.4,2.21-36.56-5.91-10.11-8.12-12.9-22.4-11.18-34.65h0Z"/>
    <path d="m301.82,315.75c1.72,12.26-1.07,26.53-11.18,34.65-10.16,8.12-24.36,9.64-36.56,5.91-7.9-2.29-16.03-8.04-17.53-16.54,2.38,5.72,7.16,9.62,12.74,11.77,15.79,6.12,37.67,3.1,46.52-12.71,3.82-7.06,5.54-15.06,6.02-23.09h0Z"/>
    <path d="m269.47,286.91s8.05,10.69-7.89,26.94c0,.03,5.4-6.53,7.89-26.94Z"/>
    <path d="m203.62,286.91s-8.05,10.69,7.89,26.94c0,.03-5.4-6.53-7.89-26.94Z"/>
    <path d="m225.21,351.14s3.94,4.32,11.34,4.52c7.4-.2,11.34-4.52,11.34-4.52l-11.34-12.02-11.34,12.02Z"/>
    <path d="m340.44,206.1c-8.09-7.04-17.33-12.22-27.35-15.68-3.29-1.25-6.6-1.84-10.29-3.18-3.54-1.4-6.86-3.44-9.65-6.01-2.75-2.61-5.06-5.59-6.94-8.72-2.94-4.5-4.82-9.52-8.87-13.02-1.32-1.09-2.92-1.88-4.68-2.29,3.74-.15,7.2,2.2,9.6,4.93,2.46,2.77,4.44,5.8,6.54,8.62,4.05,5.56,8.96,10.38,15.45,12.75,3.12,1.21,6.96,2.04,10.15,3.36,10.1,4,19.65,10.34,26.05,19.22h0Z"/>
    <path d="m132.66,206.1c6.39-8.88,15.95-15.22,26.05-19.22,3.19-1.32,7.03-2.15,10.15-3.36,3.14-1.18,6.02-2.92,8.57-5.11,2.58-2.17,4.76-4.83,6.88-7.64,3.2-4.16,6.05-9.4,10.84-12.19,1.64-.92,3.49-1.41,5.3-1.37-1.76.4-3.36,1.2-4.68,2.29-4.05,3.5-5.93,8.51-8.87,13.02-1.88,3.12-4.19,6.1-6.94,8.72-2.79,2.57-6.11,4.62-9.65,6.01-3.69,1.34-7.01,1.93-10.29,3.18-10.02,3.45-19.25,8.64-27.35,15.68h0Z"/>
    <path d="m273.6,356.36c-6.21,15.61-20.51,27.94-37.06,31.23-8.33-1.73-16.27-5.57-22.65-11.21-6.27-5.43-11.38-12.31-14.41-20.02,4.09,7.03,9.51,13.25,15.9,18.21,3.16,2.44,6.55,4.62,10.19,6.25,3.08,1.71,8.74,3.15,10.97,3.78,14.84-3.14,28.98-14.07,37.06-28.23h0Z"/>
    <path d="m173.33,298.1c-3.24-5.27-6.81-10.33-11.59-14.28-3.49-2.78-7.36-4.99-11.65-6.14-1.08-.3-2.27-.53-3.4-.64-8.6,7.83-17.42,15.44-26.92,22.17,7.82-9.37,16.55-17.93,25.46-26.24,7.04.09,13.73,3.67,18.65,8.5,4.6,4.63,7.68,10.42,9.45,16.63Z"/>
    <path d="m353.33,299.21c-9.5-6.74-18.34-14.35-26.93-22.17-1.13.11-2.32.34-3.4.64-4.29,1.15-8.15,3.36-11.65,6.14-4.78,3.95-8.35,9.01-11.58,14.28,1.76-6.21,4.84-12,9.45-16.63,4.92-4.83,11.61-8.41,18.65-8.5,8.91,8.31,17.63,16.87,25.46,26.24Z"/>
    <circle cx="286.51" cy="234.48" r="4.61"/>
    <path d="m286.92,247.18c-6.64,0-12.04-5.4-12.04-12.04s5.4-12.04,12.04-12.04,12.04,5.4,12.04,12.04-5.4,12.04-12.04,12.04Zm0-22.08c-5.54,0-10.04,4.5-10.04,10.04s4.5,10.04,10.04,10.04,10.04-4.5,10.04-10.04-4.5-10.04-10.04-10.04Z"/>
    <circle cx="186.6" cy="234.48" r="4.61"/>
    <path d="m186.19,247.18c-6.64,0-12.04-5.4-12.04-12.04s5.4-12.04,12.04-12.04,12.04,5.4,12.04,12.04-5.4,12.04-12.04,12.04Zm0-22.08c-5.54,0-10.04,4.5-10.04,10.04s4.5,10.04,10.04,10.04,10.04-4.5,10.04-10.04-4.5-10.04-10.04-10.04Z"/>
    <g>
      <path d="m286.86,327.51c18.68-7.34,42.4-5.4,58.93,6.27-4.79-1.77-9.43-3.61-14.31-4.73-14.56-3.73-29.79-3.76-44.62-1.54h0Z"/>
      <path d="m281.65,335.91c19.01-6.45,42.61-3.4,58.57,9.04-4.7-1.99-9.25-4.06-14.07-5.4-14.36-4.41-29.58-5.16-44.5-3.64h0Z"/>
      <path d="m282.01,346.24c23.31-5.75,51.14-.22,69.44,15.6-5.4-2.87-10.67-5.78-16.33-7.83-16.83-6.58-35.11-8.72-53.11-7.77h0Z"/>
    </g>
    <g>
      <path d="m186.23,327.51c-14.83-2.22-30.07-2.19-44.62,1.54-4.88,1.11-9.52,2.96-14.31,4.73,16.53-11.67,40.25-13.61,58.94-6.27h0Z"/>
      <path d="m191.45,335.91c-14.92-1.52-30.14-.77-44.5,3.64-4.82,1.34-9.37,3.4-14.07,5.4,15.96-12.44,39.56-15.49,58.57-9.04h0Z"/>
      <path d="m191.09,346.24c-18-.95-36.29,1.2-53.11,7.77-5.66,2.05-10.93,4.96-16.33,7.83,18.3-15.82,46.13-21.35,69.44-15.6h0Z"/>
    </g>
    <g>
      <path d="m210.58,250.36c-.31-.68-.7-1.59-1.16-2.66-3.42-8.03-9.79-22.96-17.94-24.46-5.32-.98-16.69-1.41-24.68-1.6-1.21-1.69-2.99-3.45-5.59-4.68-3.81-1.81-5.44-3.21-6.14-4.07.92,1.64,3.14,5.08,7.03,8.66-2.25-.04-3.76-.05-3.99-.05l-4.95-.03c-7.28-.15-18.93.3-25.06,4.09-9.33,5.78-15.56,38.67-15.56,38.67,0,0,12.89-16.22,16.89-24.33,3.87-7.84,15.53-12.66,33.53-12.57.64,3.8,4.08,19.2,18.11,22.69,6.53,1.63,10.88,1.94,14.06,2.17,3.17.23,4.91.35,6.5,1.57,3.29,2.51,4.33,6.67,4.34,6.71l.58,2.45,1.88-1.68c1.75-1.56,4.44-5.84,2.14-10.85Zm-41.36-23.6s14.33-3.39,23.78,1.56c8.31,4.35,12.22,23.56,10.67,20.22-1.56-3.33-17.11-.22-25.56-4.06s-8.89-16.17-8.89-16.17v-1.56Z"/>
      <path d="m155.08,212.87c-.35-.63-.53-1-.53-1,0,0,0,.35.53,1Z"/>
    </g>
    <g>
      <path d="m345.01,225.54c-6.13-3.79-17.78-4.23-25.06-4.09l-4.95.03c-.24,0-1.74.01-3.99.05,3.9-3.58,6.11-7.02,7.03-8.66-.7.86-2.33,2.26-6.14,4.07-2.6,1.23-4.37,2.99-5.59,4.68-7.99.19-19.37.63-24.68,1.6-8.15,1.5-14.51,16.44-17.94,24.46-.46,1.07-.85,1.98-1.16,2.66-2.3,5.01.4,9.29,2.14,10.85l1.88,1.68.58-2.45s1.03-4.18,4.34-6.71c1.59-1.21,3.33-1.34,6.5-1.57,3.18-.23,7.53-.54,14.06-2.17,14.03-3.49,17.47-18.89,18.11-22.69,18-.09,29.66,4.72,33.53,12.57,4,8.11,16.89,24.33,16.89,24.33,0,0-6.22-32.89-15.56-38.67Zm-41.11,1.22v1.56s-.44,12.33-8.89,16.17c-8.44,3.83-24,.72-25.56,4.06-1.56,3.33,2.36-15.87,10.67-20.22,9.44-4.94,23.78-1.56,23.78-1.56Z"/>
      <path d="m318.03,212.87c.52-.65.53-1,.53-1,0,0-.18.37-.53,1Z"/>
    </g>
    <path d="m145.28,179.12c-.17.45-.36.9-.56,1.34-.26.56-.54,1.1-.85,1.63-.86,1.44-1.85,2.8-3,4-1.08,1.13-2.35,2.08-3.79,2.66-.39.16-.8.28-1.21.38,1.83-.32,3.62-.88,5.38-1.49,1.74-.61,3.45-1.32,5.11-2.15s3.17-1.73,4.63-2.8c1.4-1.03,2.72-2.18,3.87-3.5,1.13-1.29,2.12-2.74,2.85-4.31.09-.2.16-.42.28-.6.4.32.58.97.71,1.45.17.64.24,1.3.21,1.96-.06,1.32-.47,2.59-1.03,3.76-.33.69-.75,1.32-1.13,1.98,1.25-1.03,2.23-2.44,3.13-3.78.95-1.41,1.78-2.9,2.47-4.45.72-1.6,1.3-3.26,1.73-4.97s.73-3.5.87-5.28.16-3.7-.02-5.53c-.02-.2-.07-.42-.05-.63.45.04.93.34,1.35.52.46.2.91.41,1.35.65.82.44,1.62.97,2.26,1.67.34.37.6.79.79,1.27-.07-2.5-.76-5.04-1.41-7.44-.66-2.42-1.49-4.8-2.5-7.09-.99-2.24-2.15-4.4-3.51-6.43-1.32-1.99-2.82-3.85-4.49-5.53-1.65-1.67-3.48-3.15-5.44-4.41-2.1-1.35-4.3-2.52-6.42-3.82s-4.23-2.68-6.28-4.12c-2.04-1.43-4.04-2.93-5.99-4.51s-3.81-3.2-5.59-4.93-3.4-3.4-4.8-5.36c-.17-.23-.32-.47-.47-.71s-.28-.57-.47-.77c.13.65.47,1.26.74,1.86.3.67.6,1.33.93,1.98.65,1.3,1.37,2.58,2.11,3.83,1.42,2.4,3.02,4.71,4.8,6.85,1.75,2.1,3.67,4.06,5.78,5.77,1.1.89,2.26,1.69,3.33,2.6s2.19,1.92,3.25,2.91c2.01,1.88,3.99,3.82,5.67,6.02.16.21.46.47.52.74-.79-.25-1.56-.62-2.35-.91s-1.59-.55-2.4-.79c-1.63-.49-3.28-.88-4.95-1.18s-3.4-.5-5.11-.57-3.43.01-5.13.27c-1.63.25-3.23.68-4.77,1.32-.17.07-.36.13-.52.23.91.08,1.84.05,2.75.09s1.83.1,2.74.18c1.82.16,3.64.4,5.44.73,1.77.33,3.52.74,5.22,1.32,1.6.54,3.17,1.21,4.58,2.15,1.27.84,2.41,1.92,3.13,3.3.09.18.22.37.25.57-.46.12-1,.03-1.48.04-.5.01-1.01.04-1.51.07-1.02.06-2.03.15-3.04.27-2,.23-4,.56-5.96,1.02-1.92.45-3.82,1.03-5.65,1.78s-3.44,1.6-4.98,2.71c-1.45,1.05-2.75,2.31-3.79,3.78-.13.18-.29.37-.38.58.86-.17,1.69-.66,2.52-.96.87-.31,1.74-.61,2.62-.88,1.77-.56,3.57-1.05,5.39-1.43s3.64-.66,5.49-.76,3.55,0,5.26.48c1.47.42,2.83,1.18,3.82,2.39.12.15.28.31.34.49-.75.29-1.66.26-2.46.37-.88.13-1.75.28-2.63.44-1.76.32-3.52.67-5.26,1.08s-3.46.86-5.17,1.39-3.31,1.11-4.9,1.85c-1.48.68-2.92,1.49-4.15,2.58-.14.12-.29.24-.4.39,1.71-.36,3.45-.58,5.18-.79s3.59-.36,5.4-.43c1.79-.07,3.58-.06,5.36.1,1.68.15,3.37.42,4.97,1.02,1.35.51,2.74,1.27,3.55,2.54.98,1.54.26,3.22-.13,4.83-.58,2.38-1.12,4.8-2,7.09Z"/>
    <path d="m327.83,179.12c.17.45.36.9.56,1.34.26.56.54,1.1.85,1.63.86,1.44,1.85,2.8,3,4,1.08,1.13,2.35,2.08,3.79,2.66.39.16.8.28,1.21.38-1.83-.32-3.62-.88-5.38-1.49-1.74-.61-3.45-1.32-5.11-2.15s-3.17-1.73-4.63-2.8-2.72-2.18-3.87-3.5c-1.13-1.29-2.12-2.74-2.85-4.31-.09-.2-.16-.42-.28-.6-.4.32-.58.97-.71,1.45-.17.64-.24,1.3-.21,1.96.06,1.32.47,2.59,1.03,3.76.33.69.75,1.32,1.13,1.98-1.25-1.03-2.23-2.44-3.13-3.78-.95-1.41-1.78-2.9-2.47-4.45-.72-1.6-1.3-3.26-1.73-4.97-.44-1.73-.73-3.5-.87-5.28-.15-1.83-.16-3.7.02-5.53.02-.2.07-.42.05-.63-.45.04-.93.34-1.35.52-.46.2-.91.41-1.35.65-.82.44-1.62.97-2.26,1.67-.34.37-.6.79-.79,1.27.07-2.5.76-5.04,1.41-7.44s1.49-4.8,2.5-7.09c.99-2.24,2.15-4.4,3.51-6.43,1.32-1.99,2.82-3.85,4.49-5.53,1.65-1.67,3.48-3.15,5.44-4.41,2.1-1.35,4.3-2.52,6.42-3.82s4.23-2.68,6.28-4.12c2.04-1.43,4.04-2.93,5.99-4.51s3.81-3.2,5.59-4.93,3.4-3.4,4.8-5.36c.17-.23.32-.47.47-.71s.28-.57.47-.77c-.13.65-.47,1.26-.74,1.86-.3.67-.6,1.33-.93,1.98-.65,1.3-1.37,2.58-2.11,3.83-1.42,2.4-3.02,4.71-4.8,6.85-1.75,2.1-3.67,4.06-5.78,5.77-1.1.89-2.26,1.69-3.33,2.6-1.11.94-2.19,1.92-3.25,2.91-2.01,1.88-3.99,3.82-5.67,6.02-.16.21-.46.47-.52.74.79-.25,1.56-.62,2.35-.91.79-.29,1.59-.55,2.4-.79,1.63-.49,3.28-.88,4.95-1.18s3.4-.5,5.11-.57,3.43.01,5.13.27c1.63.25,3.23.68,4.77,1.32.17.07.36.13.52.23-.91.08-1.84.05-2.75.09s-1.83.1-2.74.18c-1.82.16-3.64.4-5.44.73-1.77.33-3.52.74-5.22,1.32-1.6.54-3.17,1.21-4.58,2.15-1.27.84-2.41,1.92-3.13,3.3-.09.18-.22.37-.25.57.46.12,1,.03,1.48.04.5.01,1.01.04,1.51.07,1.02.06,2.03.15,3.04.27,2,.23,4,.56,5.96,1.02,1.92.45,3.82,1.03,5.65,1.78s3.44,1.6,4.98,2.71c1.45,1.05,2.75,2.31,3.79,3.78.13.18.29.37.38.58-.86-.17-1.69-.66-2.52-.96-.87-.31-1.74-.61-2.62-.88-1.77-.56-3.57-1.05-5.39-1.43s-3.64-.66-5.49-.76-3.55,0-5.26.48c-1.47.42-2.83,1.18-3.82,2.39-.12.15-.28.31-.34.49.75.29,1.66.26,2.46.37.88.13,1.75.28,2.63.44,1.76.32,3.52.67,5.26,1.08s3.46.86,5.17,1.39,3.31,1.11,4.9,1.85c1.48.68,2.92,1.49,4.15,2.58.14.12.29.24.4.39-1.71-.36-3.45-.58-5.18-.79s-3.59-.36-5.4-.43c-1.79-.07-3.58-.06-5.36.1-1.68.15-3.37.42-4.97,1.02-1.35.51-2.74,1.27-3.55,2.54-.98,1.54-.26,3.22.13,4.83.58,2.38,1.12,4.8,2,7.09Z"/>
    <path d="m151.81,434.68c18.41-15.35,39.34-31.62,49.49-53.86-3.92,23.23-29.06,44.31-49.49,53.86h0Z"/>
    <path d="m321.3,434.68c-20.41-9.54-45.56-30.62-49.49-53.86,10.15,22.23,31.08,38.51,49.49,53.86h0Z"/>
  </g>
  <g>
    <path d="m530.07,340.99c-27,0-35.1-17.55-35.1-41.58v-157.41c9.18-5.13,21.87-7.83,39.15-7.83v158.76c0,10.26,3.51,12.96,11.34,12.96,6.21,0,11.61-1.62,16.47-4.86,1.08,11.34-2.43,25.92-7.56,33.75-6.21,3.78-14.31,6.21-24.3,6.21Z"/>
    <path d="m669.39,319.39c-5.94,12.15-18.63,21.6-42.39,21.6-21.06,0-44.82-7.29-44.82-52.11v-82.35c9.18-5.13,22.14-8.1,39.15-8.1v83.7c0,14.58,4.59,22.68,20.25,22.68,12.69,0,21.06-5.4,25.92-11.61v-89.91c3.78-1.89,10.26-3.24,19.71-3.24s15.93,1.35,19.44,3.24v128.79c-7.02,4.05-18.09,6.21-30.51,6.21l-4.59-18.9h-2.16Z"/>
    <path d="m816.26,306.16c12.96,0,24.3-2.97,34.02-7.83,1.62,10.8-3.24,27.54-10.53,35.1-8.91,4.32-20.79,7.56-36.18,7.56-43.74,0-67.5-26.73-67.5-70.74,0-50.22,30.24-74.52,71.28-74.52,13.23,0,25.11,2.43,32.94,7.29,5.94,7.56,8.91,23.76,7.02,34.83-9.72-5.67-18.63-8.37-31.05-8.37-24.3,0-39.96,10.8-39.96,38.07s15.66,38.61,39.96,38.61Z"/>
    <path d="m917.78,333.43c-3.51,1.89-9.99,3.24-19.44,3.24s-15.93-1.35-19.71-3.24v-191.43c9.18-5.13,21.87-7.83,39.15-7.83v41.04c0,15.39-1.35,31.86-3.51,44.28h2.16c5.94-13.5,18.9-23.76,43.74-23.76,21.06,0,45.63,7.29,45.63,51.84v85.86c-3.51,1.89-9.99,3.24-19.44,3.24s-15.93-1.35-19.71-3.24v-78.84c0-14.31-5.13-23.49-21.33-23.49-14.58,0-22.41,7.29-27.54,15.93v86.4Z"/>
    <path d="m1079.51,310.75c13.77,0,19.17-4.32,19.17-12.42,0-21.33-61.56-10.8-61.56-58.86,0-27.54,17.55-43.74,50.22-43.74,13.5,0,27.81,2.7,38.34,9.18,4.86,7.83,7.83,22.68,6.48,33.21-12.15-7.56-27.27-12.42-40.5-12.42-11.61,0-15.12,3.78-15.12,10.26,0,19.98,61.83,9.99,61.83,57.78,0,34.56-24.03,47.25-57.51,47.25-14.04,0-29.43-2.16-41.04-7.56-5.67-9.18-7.83-25.65-5.94-34.83,11.07,7.02,30.78,12.15,45.63,12.15Z"/>
  </g>
</svg>